<?xml version="1.0" encoding="UTF-8"?>
<svg id="Calque_1" data-name="Calque 1" xmlns="http://www.w3.org/2000/svg" viewBox="0 0 66.19 76.43">
  <polygon points="61.74 50.62 65.32 44.42 58.16 44.42 54.58 38.21 58.16 32.01 65.32 32.01 61.74 25.81 65.32 19.61 58.16 19.61 54.58 13.4 51 19.61 43.84 19.61 40.26 13.41 43.84 7.2 36.68 7.2 33.09 1 29.51 7.2 22.35 7.2 25.93 13.41 22.35 19.61 15.19 19.61 11.61 13.4 8.03 19.61 .87 19.61 4.45 25.81 .87 32.01 8.03 32.01 11.61 38.21 8.03 44.42 .87 44.42 4.45 50.62 .87 56.82 8.03 56.82 11.61 63.02 15.19 56.82 22.35 56.82 25.93 63.02 22.35 69.23 29.51 69.23 33.09 75.43 36.67 69.23 43.84 69.23 40.26 63.02 43.84 56.82 51 56.82 54.58 63.02 58.16 56.82 65.32 56.82 61.74 50.62" fill="none" stroke="#1d1d1b" stroke-miterlimit="10"/>
</svg>