<?xml version="1.0" encoding="UTF-8"?>
<svg id="Calque_1" data-name="Calque 1" xmlns="http://www.w3.org/2000/svg" viewBox="0 0 27.25 18.2">
  <path d="M15.85,10.36l-2.27-1.19-2.28-1.16c-.29-.15-.53.12-.43.48l.73,2.86.76,2.86c.1.36.45.54.65.33l1.54-1.67,1.52-1.7c.19-.21.07-.66-.21-.81ZM15.73,11.48l-1.21,1.36-1.23,1.33c-.32.34-.9.04-1.06-.54l-.6-2.28-.58-2.28c-.15-.59.24-1.02.71-.79l1.81.92,1.81.94c.47.24.66.98.34,1.33Z" fill="none" stroke="#fff" stroke-miterlimit="10" stroke-width=".2"/>
  <path d="M17.2,10.93l-2.95-2.24-2.97-2.2c-.37-.28-.8,0-.77.51l.21,4,.25,4c.03.5.5.85.84.63l2.74-1.76,2.71-1.8c.34-.23.31-.86-.07-1.14ZM16.69,12.37l-2.17,1.44-2.19,1.4c-.56.36-1.32-.2-1.38-1.03l-.2-3.18-.16-3.18c-.04-.82.66-1.28,1.27-.83l2.36,1.74,2.35,1.78c.61.46.67,1.49.11,1.86Z" fill="none" stroke="#fff" stroke-miterlimit="10" stroke-width=".2"/>
  <path d="M18.88,12.12l-3.62-3.82-3.66-3.77c-.46-.47-1.17-.23-1.28.44l-.88,5.34-.82,5.36c-.1.68.47,1.27,1.04,1.08l4.51-1.53,4.49-1.59c.57-.2.7-1.04.24-1.52ZM17.71,13.88l-3.58,1.27-3.6,1.22c-.93.31-1.87-.66-1.7-1.76l.66-4.27.71-4.25c.18-1.1,1.34-1.5,2.1-.73l2.92,3,2.89,3.03c.75.78.53,2.16-.4,2.49Z" fill="none" stroke="#fff" stroke-miterlimit="10" stroke-width=".2"/>
  <path d="M20.99,14.33l-4.14-6.11-4.21-6.05c-.53-.76-1.63-.65-1.99.21l-2.87,6.81-2.79,6.85c-.35.86.3,1.82,1.19,1.73l7.01-.7,7-.79c.88-.1,1.33-1.17.81-1.94ZM18.76,16.31l-5.59.63-5.6.56c-1.45.14-2.52-1.41-1.94-2.82l2.23-5.44,2.3-5.41c.59-1.4,2.4-1.59,3.27-.35l3.36,4.81,3.3,4.85c.85,1.25.12,3.01-1.32,3.17Z" fill="none" stroke="#fff" stroke-miterlimit="10" stroke-width=".2"/>
  <path d="M0,7.05h2.82s3.29.04,1.92,1.45,16.55,4.38,16.55,4.38c0,0,9.84,1.36,3.68,2.14" fill="none" stroke="#ccc" stroke-miterlimit="10" stroke-width=".5"/>
  <path d="M16.48,10.59l-2.6-1.66-2.61-1.62c-.33-.2-.65.07-.59.5l.53,3.4.56,3.4c.07.43.48.69.74.47l2.08-1.74,2.05-1.78c.26-.22.17-.76-.15-.97ZM16.2,11.87l-1.64,1.42-1.66,1.39c-.43.36-1.1-.06-1.21-.76l-.44-2.71-.42-2.71c-.11-.7.42-1.15.96-.82l2.08,1.29,2.07,1.32c.54.34.67,1.21.25,1.58Z" fill="none" stroke="#fff" stroke-miterlimit="10" stroke-width=".2"/>
  <path d="M17.98,11.39l-3.29-2.95-3.32-2.91c-.42-.37-.97-.1-1,.49l-.24,4.65-.2,4.66c-.02.59.5,1.05.94.83l3.54-1.7,3.52-1.75c.44-.22.48-.95.06-1.32ZM17.18,13l-2.81,1.4-2.83,1.35c-.73.35-1.58-.4-1.54-1.36l.16-3.71.2-3.7c.05-.96.96-1.4,1.64-.8l2.65,2.31,2.63,2.34c.68.61.62,1.8-.11,2.16Z" fill="none" stroke="#fff" stroke-miterlimit="10" stroke-width=".2"/>
  <path d="M19.88,13.09l-3.92-4.86-3.97-4.81c-.5-.61-1.39-.41-1.61.35l-1.74,6.07-1.67,6.1c-.21.77.41,1.53,1.12,1.38l5.66-1.21,5.64-1.29c.71-.16.98-1.12.49-1.73ZM18.24,14.98l-4.51,1.03-4.52.97c-1.17.25-2.18-.99-1.84-2.24l1.34-4.85,1.39-4.83c.36-1.25,1.81-1.57,2.63-.58l3.17,3.82,3.12,3.87c.81,1,.37,2.56-.8,2.83Z" fill="none" stroke="#fff" stroke-miterlimit="10" stroke-width=".2"/>
  <path d="M22.18,15.9l-4.25-7.57L13.58.81c-.55-.95-1.9-.95-2.44,0l-4.34,7.52-4.25,7.57c-.54.95.14,2.14,1.22,2.15l8.59.05,8.59-.05c1.08,0,1.76-1.19,1.22-2.15ZM19.22,17.92l-6.86.04-6.86-.04c-1.77-.01-2.88-1.95-2-3.5l3.39-6.02,3.47-5.98c.9-1.55,3.11-1.55,4.01,0l3.47,5.98,3.39,6.02c.88,1.56-.23,3.49-2,3.5Z" fill="none" stroke="#fff" stroke-miterlimit="10" stroke-width=".2"/>
</svg>