<?xml version="1.0" encoding="UTF-8"?>
<svg id="Calque_1" data-name="Calque 1" xmlns="http://www.w3.org/2000/svg" viewBox="0 0 560 484.97">
  <polygon points="280 0 297.5 30.31 262.5 30.31 280 0"/>
  <polygon points="262.5 30.31 280 60.62 245 60.62 262.5 30.31"/>
  <polygon points="297.5 30.31 315 60.62 280 60.62 297.5 30.31"/>
  <polygon points="245 60.62 262.5 90.93 227.5 90.93 245 60.62"/>
  <polygon points="227.5 90.93 245 121.24 210 121.24 227.5 90.93"/>
  <polygon points="262.5 90.93 280 121.24 245 121.24 262.5 90.93"/>
  <polygon points="315 60.62 332.5 90.93 297.5 90.93 315 60.62"/>
  <polygon points="297.5 90.93 315 121.24 280 121.24 297.5 90.93"/>
  <polygon points="332.5 90.93 350 121.24 315 121.24 332.5 90.93"/>
  <polygon points="210 121.24 227.5 151.55 192.5 151.55 210 121.24"/>
  <polygon points="192.5 151.55 210 181.87 175 181.87 192.5 151.55"/>
  <polygon points="227.5 151.55 245 181.87 210 181.87 227.5 151.55"/>
  <polygon points="175 181.87 192.5 212.18 157.5 212.18 175 181.87"/>
  <polygon points="157.5 212.18 175 242.49 140 242.49 157.5 212.18"/>
  <polygon points="192.5 212.18 210 242.49 175 242.49 192.5 212.18"/>
  <polygon points="245 181.87 262.5 212.18 227.5 212.18 245 181.87"/>
  <polygon points="227.5 212.18 245 242.49 210 242.49 227.5 212.18"/>
  <polygon points="262.5 212.18 280 242.49 245 242.49 262.5 212.18"/>
  <polygon points="350 121.24 367.5 151.55 332.5 151.55 350 121.24"/>
  <polygon points="332.5 151.55 350 181.87 315 181.87 332.5 151.55"/>
  <polygon points="367.5 151.55 385 181.87 350 181.87 367.5 151.55"/>
  <polygon points="315 181.87 332.5 212.18 297.5 212.18 315 181.87"/>
  <polygon points="297.5 212.18 315 242.49 280 242.49 297.5 212.18"/>
  <polygon points="332.5 212.18 350 242.49 315 242.49 332.5 212.18"/>
  <polygon points="385 181.87 402.5 212.18 367.5 212.18 385 181.87"/>
  <polygon points="367.5 212.18 385 242.49 350 242.49 367.5 212.18"/>
  <polygon points="402.5 212.18 420 242.49 385 242.49 402.5 212.18"/>
  <polygon points="140 242.49 157.5 272.8 122.5 272.8 140 242.49"/>
  <polygon points="122.5 272.8 140 303.11 105 303.11 122.5 272.8"/>
  <polygon points="157.5 272.8 175 303.11 140 303.11 157.5 272.8"/>
  <polygon points="105 303.11 122.5 333.42 87.5 333.42 105 303.11"/>
  <polygon points="87.5 333.42 105 363.73 70 363.73 87.5 333.42"/>
  <polygon points="122.5 333.42 140 363.73 105 363.73 122.5 333.42"/>
  <polygon points="175 303.11 192.5 333.42 157.5 333.42 175 303.11"/>
  <polygon points="157.5 333.42 175 363.73 140 363.73 157.5 333.42"/>
  <polygon points="192.5 333.42 210 363.73 175 363.73 192.5 333.42"/>
  <polygon points="70 363.73 87.5 394.04 52.5 394.04 70 363.73"/>
  <polygon points="52.5 394.04 70 424.35 35 424.35 52.5 394.04"/>
  <polygon points="87.5 394.04 105 424.35 70 424.35 87.5 394.04"/>
  <polygon points="35 424.35 52.5 454.66 17.5 454.66 35 424.35"/>
  <polygon points="17.5 454.66 35 484.97 0 484.97 17.5 454.66"/>
  <polygon points="52.5 454.66 70 484.97 35 484.97 52.5 454.66"/>
  <polygon points="105 424.35 122.5 454.66 87.5 454.66 105 424.35"/>
  <polygon points="87.5 454.66 105 484.97 70 484.97 87.5 454.66"/>
  <polygon points="122.5 454.66 140 484.97 105 484.97 122.5 454.66"/>
  <polygon points="210 363.73 227.5 394.04 192.5 394.04 210 363.73"/>
  <polygon points="192.5 394.04 210 424.35 175 424.35 192.5 394.04"/>
  <polygon points="227.5 394.04 245 424.35 210 424.35 227.5 394.04"/>
  <polygon points="175 424.35 192.5 454.66 157.5 454.66 175 424.35"/>
  <polygon points="157.5 454.66 175 484.97 140 484.97 157.5 454.66"/>
  <polygon points="192.5 454.66 210 484.97 175 484.97 192.5 454.66"/>
  <polygon points="245 424.35 262.5 454.66 227.5 454.66 245 424.35"/>
  <polygon points="227.5 454.66 245 484.97 210 484.97 227.5 454.66"/>
  <polygon points="262.5 454.66 280 484.97 245 484.97 262.5 454.66"/>
  <polygon points="420 242.49 437.5 272.8 402.5 272.8 420 242.49"/>
  <polygon points="402.5 272.8 420 303.11 385 303.11 402.5 272.8"/>
  <polygon points="437.5 272.8 455 303.11 420 303.11 437.5 272.8"/>
  <polygon points="385 303.11 402.5 333.42 367.5 333.42 385 303.11"/>
  <polygon points="367.5 333.42 385 363.73 350 363.73 367.5 333.42"/>
  <polygon points="402.5 333.42 420 363.73 385 363.73 402.5 333.42"/>
  <polygon points="455 303.11 472.5 333.42 437.5 333.42 455 303.11"/>
  <polygon points="437.5 333.42 455 363.73 420 363.73 437.5 333.42"/>
  <polygon points="472.5 333.42 490 363.73 455 363.73 472.5 333.42"/>
  <polygon points="350 363.73 367.5 394.04 332.5 394.04 350 363.73"/>
  <polygon points="332.5 394.04 350 424.35 315 424.35 332.5 394.04"/>
  <polygon points="367.5 394.04 385 424.35 350 424.35 367.5 394.04"/>
  <polygon points="315 424.35 332.5 454.66 297.5 454.66 315 424.35"/>
  <polygon points="297.5 454.66 315 484.97 280 484.97 297.5 454.66"/>
  <polygon points="332.5 454.66 350 484.97 315 484.97 332.5 454.66"/>
  <polygon points="385 424.35 402.5 454.66 367.5 454.66 385 424.35"/>
  <polygon points="367.5 454.66 385 484.97 350 484.97 367.5 454.66"/>
  <polygon points="402.5 454.66 420 484.97 385 484.97 402.5 454.66"/>
  <polygon points="490 363.73 507.5 394.04 472.5 394.04 490 363.73"/>
  <polygon points="472.5 394.04 490 424.35 455 424.35 472.5 394.04"/>
  <polygon points="507.5 394.04 525 424.35 490 424.35 507.5 394.04"/>
  <polygon points="455 424.35 472.5 454.66 437.5 454.66 455 424.35"/>
  <polygon points="437.5 454.66 455 484.97 420 484.97 437.5 454.66"/>
  <polygon points="472.5 454.66 490 484.97 455 484.97 472.5 454.66"/>
  <polygon points="525 424.35 542.5 454.66 507.5 454.66 525 424.35"/>
  <polygon points="507.5 454.66 525 484.97 490 484.97 507.5 454.66"/>
  <polygon points="542.5 454.66 560 484.97 525 484.97 542.5 454.66"/>
</svg>